# xmcd
#
# Track frame offsets: 
#        150
#        16125
#        33450
#        49425
#
# Disc length: 886 seconds
#
# Revision: 1
# Processed by: cddbd v1.5.2PL0 Copyright (c) Steve Scherf et al.
# Submitted via: ExactAudioCopy v1.3
#
DISCID=2c037404
DTITLE=佐伯ユウスケ - ツヨサヨワサ
DYEAR=2017
DGENRE=Rock
TTITLE0=ツヨサヨワサ
TTITLE1=行かないと
TTITLE2=ツヨサヨワサ (Instrumental)
TTITLE3=行かないと (Instrumental)
EXTD=YEAR: 2005
EXTT0=
EXTT1=
EXTT2=
EXTT3=
PLAYORDER=
